# xmcd
#
# Track frame offsets: 
#        150
#        12500
#        30925
#        46327
#        61002
#        76747
#        97632
#        115687
#        129920
#        146550
#        158247
#        171587
#        189042
#        205492
#        218045
#
# Disc length: 3066 seconds
#
# Revision: 8
# Processed by: cddbd v1.5.2PL0 Copyright (c) Steve Scherf et al.
# Submitted via: ExactAudioCopy v0.99pb5
#
DISCID=b60bf80f
DTITLE=Flying Pickets - The Warning
DYEAR=1992
DGENRE=Acapella
TTITLE0=God We Were Laughing
TTITLE1=Love Is A Wonderful Thing
TTITLE2=Breakfast With Aliens
TTITLE3=No Deposit, No Return
TTITLE4=The Warning
TTITLE5=Billy Jean
TTITLE6=Don't Dream It's Over
TTITLE7=Mama Loo
TTITLE8=Wonder
TTITLE9=Stand Up
TTITLE10=Sunny Afternoon
TTITLE11=Something Inside So Strong
TTITLE12=Master Blaster
TTITLE13=Tainted Love
TTITLE14=Me And The Fellas
EXTD=
EXTT0=
EXTT1=
EXTT2=
EXTT3=
EXTT4=
EXTT5=
EXTT6=
EXTT7=
EXTT8=
EXTT9=
EXTT10=
EXTT11=
EXTT12=
EXTT13=
EXTT14=
PLAYORDER=
